<svg xmlns="http://www.w3.org/2000/svg" viewBox="0 0 256 256">
  <defs>
    <linearGradient id="field" x1="0" y1="0" x2="1" y2="1">
      <stop offset="0" stop-color="#0b2330"/>
      <stop offset="1" stop-color="#12645f"/>
    </linearGradient>
    <linearGradient id="signal" x1="0" y1="1" x2="1" y2="0">
      <stop offset="0" stop-color="#f1b94b"/>
      <stop offset="1" stop-color="#f8df91"/>
    </linearGradient>
  </defs>
  <rect width="256" height="256" rx="56" fill="url(#field)"/>
  <path d="M72 184V70h59c34 0 54 17 54 44 0 20-11 35-31 42l39 28h-38l-34-25h-13v25H72Zm36-57h20c13 0 21-4 21-13 0-10-8-14-21-14h-20v27Z" fill="#f7fbf7"/>
  <path d="M48 197h160" stroke="url(#signal)" stroke-width="10" stroke-linecap="round"/>
  <circle cx="48" cy="197" r="8" fill="#f1b94b"/>
  <circle cx="208" cy="197" r="8" fill="#f8df91"/>
</svg>
